<?xml version="1.0" encoding="UTF-8"?>
<svg id="_レイヤー_2" data-name="レイヤー_2" xmlns="http://www.w3.org/2000/svg" viewBox="0 0 200 200" width="200" height="200">
  <defs>
    <style>
      .cls-1 {
        fill: #e6e6e6;
        transition: fill 0.3s ease;
      }
      .hover-1:hover, .hover-2:hover, .hover-3:hover,
      .hover-1:active, .hover-2:active, .hover-3:active {
        fill: #405745;
      }
    </style>
  </defs>
  <g id="_レイヤー_1-2" data-name="レイヤー_1">
    <g>
      <path class="cls-1 hover-1" d="M46.41,49.3c13.64-14.4,32.94-23.39,54.35-23.39s40.71,8.99,54.35,23.39l22.9-13.22C159.52,14.03,131.77,0,100.75,0S41.99,14.03,23.5,36.08l22.9,13.22Z"/>
      <path class="cls-1 hover-2" d="M82.85,173.43c-32.69-8.02-56.94-37.52-56.94-72.68,0-6.54.84-12.88,2.41-18.92l-23.06-13.31C1.85,78.64,0,89.48,0,100.75c0,49.54,35.75,90.72,82.85,99.17v-26.48Z"/>
      <path class="cls-1 hover-3" d="M173.18,81.83c1.57,6.04,2.41,12.38,2.41,18.92,0,34.65-23.55,63.8-55.52,72.32v26.57c46.4-9.01,81.43-49.86,81.43-98.89,0-11.27-1.85-22.11-5.27-32.23l-23.06,13.31Z"/>
    </g>
  </g>
</svg>