<?xml version="1.0" encoding="UTF-8"?>
<svg id="_レイヤー_2" data-name="レイヤー_2" xmlns="http://www.w3.org/2000/svg" viewBox="0 0 257 147">
  <defs>
    <style>
      .cls-1, .cls-2 {
        fill: none;
      }

      .cls-3 {
        fill: #405745;
        animation: blink 4s steps(1, end) infinite;
      }

      .cls-2 {
        stroke: #405745;
        stroke-linecap: round;
        stroke-linejoin: round;
        stroke-width: 6px;
      }

      @keyframes blink {
        0%, 50% {
          opacity: 0;
        }
        51%, 100% {
          opacity: 1;
        }
      }
    </style>
  </defs>
  <g id="_レイヤー_1-2" data-name="レイヤー_1">
    <g>
      <g>
        <g>
          <rect class="cls-2" x="57.82" y="15.75" width="62.17" height="93.26" rx="27.98" ry="27.98" transform="translate(-19.39 54.09) rotate(-30.68)"/>
          <path class="cls-2" d="M84.73,43.17c1.75,2.95.78,6.77-2.17,8.52-2.95,1.75-6.77.78-8.52-2.17l-3.17-5.35c-1.75-2.95-.78-6.77,2.17-8.52s6.77-.78,8.52,2.17l3.17,5.35Z"/>
        </g>
        <path class="cls-2" d="M121.57,112.66c14.93,11.88,35.39,13.58,47.28,6.27,13.04-8.02,15.68-26.84,8.44-30.87-6.1-3.39-22.28,1.95-25.64,10.86-2.59,6.89,3.48,13.27,5.95,15.88,11.29,11.88,33.63,15.93,52.43,12.15,13.73-2.76,23.25-9.24,28.53-13.61"/>
      </g>
      <rect class="cls-1" width="257" height="147"/>
      <polygon class="cls-3" points="43.47 31.18 34.1 11.1 23.39 21.81 43.47 31.18"/>
      <polygon class="cls-3" points="40.8 37.76 19.53 31.53 20.5 46.64 40.8 37.76"/>
    </g>
  </g>
</svg>